<svg width="50" height="50" viewBox="0 0 50 50" fill="none" xmlns="http://www.w3.org/2000/svg">
<path d="M25 2C12.2978 2 2 12.2978 2 25C2 35.8604 9.52985 44.9569 19.6525 47.3684C19.1288 47.2437 18.6095 47.1039 18.1 46.9447V41.675C18.1 41.675 17.2375 41.9625 16.0875 41.9625C12.8702 41.9625 11.5335 39.0919 11.2 37.65C10.9974 36.7716 10.4684 35.9392 9.9005 35.4305C9.222 34.8254 8.90442 34.8237 8.9 34.6167C8.89115 34.1823 9.48208 34.2 9.7625 34.2C11.2 34.2 12.2898 35.7295 12.7958 36.5203C14.0493 38.4727 15.3948 38.8 16.0875 38.8C16.95 38.8 17.6948 38.6708 18.2079 38.4232C18.445 36.753 19.1881 35.2651 20.4 34.2C15.0065 33.1217 11.2 30.0282 11.2 25C11.2 22.4098 12.2394 20.0293 13.9715 18.1071C13.7946 17.6055 13.5 16.5908 13.5 14.9375C13.5 13.845 13.5761 12.5039 14.075 11.2C14.075 11.2 17.3552 11.223 20.4487 14.1528C21.8764 13.7371 23.4042 13.5 25 13.5C26.5958 13.5 28.1236 13.7371 29.5513 14.1528C32.6448 11.223 35.925 11.2 35.925 11.2C36.4266 12.5039 36.5 13.845 36.5 14.9375C36.5 16.72 36.2629 17.7594 36.1178 18.2079C37.7968 20.1125 38.8 22.4558 38.8 25C38.8 30.0282 34.9935 33.1217 29.6 34.2C31.0402 35.465 31.9 37.3077 31.9 39.375V46.9447C31.3905 47.1048 30.8721 47.2437 30.3475 47.3684C40.4701 44.9569 48 35.8604 48 25C48 12.2978 37.7022 2 25 2ZM26.6038 47.9381C26.0739 47.9752 25.5396 48 25 48C25.5396 48 26.073 47.9743 26.6038 47.9381ZM25 48C24.4604 48 23.9261 47.9752 23.3962 47.9381C23.927 47.9743 24.4604 48 25 48ZM23.0432 47.9115C21.9667 47.8204 20.9104 47.6559 19.8816 47.4215C20.9113 47.655 21.9667 47.8204 23.0432 47.9115Z" fill="#F7F7F7"/>
</svg>
